<svg width="186" height="187" viewBox="0 0 186 187" fill="none" xmlns="http://www.w3.org/2000/svg">
<g clip-path="url(#clip0_14_62)">
<path d="M13.9893 180.518L19.2211 177.498C19.2211 177.498 23.5372 174.325 25.6746 168.435C27.2917 163.979 27.0689 160.589 25.9091 158.889C24.4826 156.798 20.7918 157.163 20.645 161.572C20.3565 170.254 17.8236 176.26 13.9893 180.518Z" fill="#2BB4DC"/>
<mask id="mask0_14_62" style="mask-type:luminance" maskUnits="userSpaceOnUse" x="13" y="157" width="14" height="24">
<path d="M13.9893 157.657H26.8332V180.518H13.9893V157.657Z" fill="white"/>
</mask>
<g mask="url(#mask0_14_62)">
<g opacity="0.199997">
<path d="M13.9893 180.518L19.2211 177.498C19.2211 177.498 23.5372 174.325 25.6746 168.435C27.2917 163.979 27.0689 160.589 25.9091 158.889C24.4826 156.798 20.7918 157.163 20.645 161.572C20.3565 170.254 17.8236 176.26 13.9893 180.518Z" fill="black"/>
</g>
</g>
<path d="M13.9894 180.84C13.887 180.84 13.7872 180.792 13.7241 180.701C13.623 180.555 13.6597 180.355 13.8059 180.253C25.9112 171.877 23.5664 160.207 23.5412 160.09C23.5032 159.917 23.614 159.745 23.7879 159.708C23.9631 159.669 24.1331 159.781 24.1704 159.954C24.1968 160.075 26.6427 172.154 14.1723 180.783C14.1163 180.822 14.0525 180.84 13.9894 180.84Z" fill="white"/>
<path d="M3.52561 186.559C3.52561 186.559 1.70437 185.076 2.14487 183.069C2.58601 181.061 3.76066 179.618 1.74108 177.028C-0.278503 174.437 -0.800143 170.986 1.57493 169.115C3.41097 167.668 6.27613 169.719 7.31039 165.884C8.06516 163.09 7.80756 156.901 11.3734 154.842C14.9386 152.784 17.1526 155.883 16.6052 160.081C16.1152 163.836 15.4261 167.451 15.9574 168.435C16.9974 170.36 18.7852 170.101 18.704 173.63C18.628 176.914 15.522 179.633 15.522 179.633L3.52561 186.559Z" fill="#2BB4DC"/>
<path d="M9.50938 183.426C9.34838 183.426 9.20992 183.306 9.18995 183.143C8.26839 175.512 10.4644 162.337 12.2812 158.421C12.3559 158.259 12.5458 158.188 12.7088 158.264C12.8704 158.339 12.9406 158.53 12.8653 158.691C11.0807 162.539 8.94781 175.772 9.82944 183.066C9.8507 183.242 9.72447 183.402 9.54866 183.424C9.53514 183.426 9.52226 183.426 9.50938 183.426Z" fill="white"/>
<path d="M9.33522 177.486C9.28757 177.486 9.23991 177.475 9.19419 177.453C6.95951 176.36 5.54335 172.48 5.4841 172.315C5.42357 172.148 5.51051 171.964 5.67795 171.903C5.84539 171.843 6.02957 171.93 6.09011 172.098C6.10363 172.135 7.47728 175.896 9.4769 176.874C9.63662 176.952 9.70295 177.145 9.62502 177.305C9.569 177.419 9.45436 177.486 9.33522 177.486Z" fill="white"/>
<path d="M9.29912 180.057C9.17161 180.057 9.05053 179.981 9.0003 179.855C8.93397 179.69 9.01447 179.503 9.17933 179.436C12.9397 177.929 15.2838 173.448 15.307 173.403C15.3888 173.246 15.5826 173.182 15.7404 173.265C15.8988 173.346 15.9607 173.541 15.8795 173.699C15.7797 173.891 13.4001 178.439 9.4189 180.034C9.37962 180.049 9.33905 180.057 9.29912 180.057Z" fill="white"/>
<path d="M140.759 145.414C140.759 145.414 137.943 140.859 137.671 135.901C137.399 130.942 138.488 128.885 139.981 128.294C141.473 127.703 141.587 129.522 142.358 130.601C143.13 131.68 144.689 131.062 145.265 127.709C145.842 124.356 147.956 118.674 152.329 117.589C157.16 116.393 154.568 122.058 153.356 124.269C152.143 126.48 151.198 129.491 151.998 130.311C152.797 131.131 154.036 129.616 155.226 131.02C156.661 132.715 152.199 138.809 149.638 140.288L140.759 145.414Z" fill="#2BB4DC"/>
<path d="M144.617 143.496C144.611 143.496 144.605 143.496 144.6 143.496C144.422 143.486 144.286 143.335 144.295 143.158C145.004 129.97 151.44 120.837 151.505 120.747C151.609 120.601 151.81 120.569 151.954 120.673C152.099 120.776 152.132 120.977 152.029 121.122C151.965 121.211 145.637 130.2 144.938 143.191C144.929 143.363 144.787 143.496 144.617 143.496Z" fill="white"/>
<path d="M144.985 139.695C144.932 139.695 144.879 139.681 144.829 139.655C143.025 138.656 142.027 135.695 141.985 135.569C141.929 135.4 142.02 135.218 142.189 135.162C142.358 135.104 142.541 135.198 142.596 135.366C142.606 135.395 143.558 138.215 145.141 139.091C145.296 139.177 145.353 139.373 145.266 139.528C145.209 139.635 145.098 139.695 144.985 139.695Z" fill="white"/>
<path d="M145.3 137.742C145.156 137.742 145.025 137.646 144.989 137.5C144.944 137.326 145.049 137.152 145.221 137.109C149.87 135.933 151.48 133.497 151.495 133.473C151.592 133.323 151.791 133.28 151.94 133.375C152.089 133.47 152.134 133.668 152.039 133.818C151.97 133.927 150.297 136.489 145.38 137.732C145.353 137.739 145.326 137.742 145.3 137.742Z" fill="white"/>
<path d="M70.7051 135.401C70.7051 135.401 64.5298 133.895 64.2084 122.332C63.8613 109.851 65.7212 95.2901 58.4382 94.1058C51.1552 92.9215 47.0683 101.852 47.1617 112.23C47.2435 121.342 50.913 141.113 70.7044 144.988L70.7051 135.401Z" fill="#2BB4DC"/>
<mask id="mask1_14_62" style="mask-type:luminance" maskUnits="userSpaceOnUse" x="47" y="94" width="24" height="51">
<path d="M47.1597 94H70.705V144.987H47.1597V94Z" fill="white"/>
</mask>
<g mask="url(#mask1_14_62)">
<g opacity="0.199997">
<path d="M70.7051 135.401C70.7051 135.401 64.5298 133.895 64.2084 122.332C63.8613 109.851 65.7212 95.2902 58.4382 94.1059C51.1552 92.9216 47.0683 101.853 47.1617 112.23C47.2435 121.342 50.913 141.113 70.7044 144.988L70.7051 135.401Z" fill="black"/>
</g>
</g>
<path d="M70.7046 143.799C70.6853 143.799 70.666 143.797 70.6466 143.794C66.1934 142.982 62.569 140.533 59.8738 136.513C51.8721 124.576 54.3934 102.297 55.2209 98.4045C55.2583 98.2306 55.4283 98.1205 55.6028 98.1566C55.7767 98.1939 55.8881 98.3646 55.8514 98.5385C55.0329 102.387 52.5329 124.405 60.4083 136.154C63.003 140.024 66.4864 142.381 70.7619 143.16C70.9371 143.192 71.053 143.36 71.0208 143.535C70.9925 143.69 70.8572 143.799 70.7046 143.799Z" fill="white"/>
<path d="M70.7055 173.484C64.3202 174.349 53.9493 174.334 47.9755 169.622C42.0018 164.91 43.244 160.85 45.5425 159.156C47.8403 157.462 49.836 155.526 45.8832 151.767C41.9296 148.008 35.5753 141.968 33.5203 132.905C31.4653 123.843 32.4776 118.18 36.5207 116.291C40.4452 114.459 41.4782 117.369 43.8803 123.372C46.2818 129.376 51.6869 124.229 56.3082 126.103C60.9289 127.977 60.748 131.687 61.039 134.876C61.3301 138.064 62.8564 138.946 65.473 138.946C68.0896 138.946 70.7042 140.456 70.7048 143.477L70.7055 173.484Z" fill="#2BB4DC"/>
<path d="M70.7052 162.963C70.6768 162.963 70.6472 162.959 70.6182 162.951C70.342 162.873 63.739 160.952 54.128 152.123C43.8897 142.718 39.0558 128.618 39.0081 128.477C38.9515 128.308 39.0416 128.125 39.2104 128.068C39.3791 128.013 39.562 128.102 39.6187 128.271C39.6657 128.411 44.4499 142.359 54.564 151.649C64.0462 160.359 70.7258 162.312 70.7921 162.331C70.9634 162.379 71.0632 162.556 71.0149 162.728C70.975 162.869 70.8462 162.963 70.7052 162.963Z" fill="white"/>
<path d="M56.8021 154.371C56.6733 154.371 56.5516 154.293 56.502 154.167C54.4354 148.855 53.9672 137.502 53.9485 137.022C53.9414 136.844 54.0799 136.695 54.2576 136.687C54.4225 136.689 54.5848 136.818 54.5919 136.997C54.5964 137.113 55.0749 148.723 57.1022 153.932C57.1666 154.098 57.0841 154.285 56.9186 154.349C56.8806 154.364 56.8414 154.371 56.8021 154.371Z" fill="white"/>
<path d="M56.7481 162.009C55.7473 162.009 55.055 161.931 54.9713 161.92C54.7948 161.9 54.6686 161.74 54.6898 161.563C54.7104 161.387 54.8695 161.256 55.0473 161.282C55.1071 161.287 61.0989 161.965 63.8514 159.158C63.975 159.03 64.1798 159.03 64.3067 159.153C64.4336 159.278 64.4355 159.482 64.3112 159.609C62.2968 161.663 58.8462 162.009 56.7481 162.009Z" fill="white"/>
<path d="M72.3139 175.585L132.866 140.626C133.482 140.27 133.482 139.693 132.867 139.337L127.265 136.096C126.649 135.739 125.651 135.738 125.034 136.095L64.4661 171.054C63.8498 171.41 63.8498 171.987 64.4661 172.342L70.0831 175.585C70.6994 175.941 71.6976 175.941 72.3139 175.585Z" fill="#E1E1E1"/>
<path d="M131.192 5.66239L76.602 37.1798C75.0622 38.0691 73.8135 40.2317 73.8135 42.0097V171.499C73.8135 173.277 75.0622 173.998 76.602 173.109L131.193 141.591C132.733 140.702 133.981 138.54 133.981 136.761L133.98 7.27239C133.98 5.49432 132.732 4.77303 131.192 5.66239Z" fill="#375A64"/>
<path d="M76.6019 37.1797L131.192 5.66235C132.569 4.86765 133.71 5.36224 133.937 6.74684C133.727 5.08725 132.584 3.24606 131.192 2.44234L128.921 1.13116C127.381 0.242439 124.884 0.242439 123.343 1.13116L68.7542 32.6485C67.9839 33.0935 67.2871 33.856 66.7822 34.7306L74.63 39.2611C75.1349 38.3872 75.8324 37.6241 76.6019 37.1797Z" fill="#2B454E"/>
<path d="M65.967 166.967C65.967 168.746 67.215 170.909 68.7555 171.797L71.0262 173.109C72.4185 173.912 74.5869 173.982 76.1293 173.333C74.8149 173.831 73.8141 173.091 73.8141 171.499V42.0095C73.8141 41.1202 74.1258 40.1355 74.6307 39.2609L66.7829 34.7304C66.278 35.6043 65.9663 36.5896 65.9663 37.479L65.967 166.967Z" fill="#1A2E35"/>
<path d="M78.1028 54.4372L129.691 24.6522C130.616 24.119 131.365 24.5518 131.365 25.6182L131.365 121.436C131.365 122.503 130.616 123.801 129.692 124.334L78.1028 154.119C77.1793 154.652 76.4297 154.219 76.4297 153.153V57.3352C76.4297 56.2681 77.1787 54.9711 78.1028 54.4372Z" fill="white"/>
<path d="M103.897 26.3333C103.356 26.6463 102.917 27.4068 102.917 28.0321C102.917 28.6581 103.356 28.9112 103.897 28.5989C104.44 28.2859 104.878 27.5253 104.878 26.8993C104.878 26.274 104.44 26.0203 103.897 26.3333Z" fill="#2B454E"/>
<path d="M103.899 143.827C101.759 145.063 100.025 148.066 100.025 150.537C100.025 153.006 101.759 154.008 103.899 152.773C106.037 151.538 107.772 148.534 107.772 146.064C107.772 143.594 106.037 142.593 103.899 143.827Z" fill="#2B454E"/>
<path d="M94.6315 36.3005C93.5483 36.9265 92.6699 38.4476 92.6699 39.6989C92.6699 40.9502 93.5483 41.457 94.6322 40.8317C95.716 40.2057 96.5938 38.6846 96.5938 37.4333C96.5938 36.182 95.7154 35.6752 94.6315 36.3005Z" fill="#2B454E"/>
<path d="M99.4287 35.8763C99.4287 36.7103 100.053 37.0265 100.823 36.5815L113.731 29.1298C114.5 28.6848 115.125 27.6486 115.125 26.8146C115.124 25.98 114.5 25.6644 113.73 26.1088L100.823 33.5611C100.053 34.0055 99.4287 35.0423 99.4287 35.8763Z" fill="#2B454E"/>
<path d="M70.3079 58.5836C71.1747 59.084 71.8773 60.3012 71.8773 61.3026C71.8773 62.3034 71.1747 62.7091 70.3079 62.2081C69.441 61.7083 68.7378 60.4905 68.7378 59.4897C68.7378 58.489 69.441 58.0832 70.3079 58.5836Z" fill="#2B454E"/>
<path d="M70.3079 70.6756C71.1747 71.176 71.8773 72.3931 71.8773 73.3945C71.8773 74.3953 71.1747 74.801 70.3079 74.3006C69.441 73.8003 68.7378 72.5831 68.7378 71.5817C68.7378 70.5809 69.441 70.1752 70.3079 70.6756Z" fill="#2B454E"/>
<path d="M69.8228 58.826C70.6897 59.3264 71.3929 60.5436 71.3929 61.5443C71.3929 62.5451 70.6897 62.9515 69.8228 62.4504C68.956 61.9501 68.2534 60.7329 68.2534 59.7321C68.2534 58.7313 68.956 58.3256 69.8228 58.826Z" fill="#375A64"/>
<path d="M69.8228 70.918C70.6897 71.4184 71.3929 72.6356 71.3929 73.637C71.3929 74.6378 70.6897 75.0435 69.8228 74.5431C68.956 74.0427 68.2534 72.8249 68.2534 71.8241C68.2534 70.8234 68.956 70.4176 69.8228 70.918Z" fill="#375A64"/>
<path d="M141.829 28.6483C141.829 27.5812 141.08 27.1491 140.155 27.6823L133.981 31.2475L88.5672 57.4673C87.643 58.0005 86.894 59.2982 86.894 60.3653L86.8947 156.182C86.8947 157.249 87.6437 157.681 88.5678 157.148L133.997 130.919L140.156 127.364C141.08 126.83 141.83 125.532 141.83 124.466L141.829 28.6483Z" fill="white"/>
<path d="M141.829 28.6483C141.829 27.5812 141.08 27.1491 140.155 27.6823L133.981 31.2475L88.5672 57.4673C87.643 58.0005 86.894 59.2982 86.894 60.3653L86.8947 156.182C86.8947 157.249 87.6437 157.681 88.5678 157.148L133.997 130.919L140.156 127.364C141.08 126.83 141.83 125.532 141.83 124.466L141.829 28.6483Z" stroke="#2BB4DC" stroke-width="1.33333" stroke-miterlimit="10"/>
<path d="M87.8202 157.7C87.6057 157.7 87.4042 157.648 87.2238 157.545C86.8039 157.302 86.5728 156.818 86.5728 156.183V60.3651C86.5728 59.1775 87.3778 57.782 88.4069 57.1882L133.82 30.9684L134.142 31.5261L88.7289 57.7459C87.9091 58.2193 87.2168 59.4184 87.2168 60.3651V156.183C87.2168 156.573 87.3372 156.866 87.5458 156.987C87.7551 157.107 88.0688 157.064 88.4069 156.87L133.837 130.64L134.159 131.198L88.7289 157.427C88.4146 157.608 88.1055 157.7 87.8202 157.7Z" fill="#2BB4DC"/>
<path d="M87.8202 157.7C87.6057 157.7 87.4042 157.648 87.2238 157.545C86.8039 157.302 86.5728 156.818 86.5728 156.183V60.3651C86.5728 59.1775 87.3778 57.782 88.4069 57.1882L133.82 30.9684L134.142 31.5261L88.7289 57.7459C87.9091 58.2193 87.2168 59.4184 87.2168 60.3651V156.183C87.2168 156.573 87.3372 156.866 87.5458 156.987C87.7551 157.107 88.0688 157.064 88.4069 156.87L133.837 130.64L134.159 131.198L88.7289 157.427C88.4146 157.608 88.1055 157.7 87.8202 157.7Z" stroke="#2BB4DC" stroke-width="1.33333" stroke-miterlimit="10"/>
<path d="M134.158 131.198L133.836 130.641L139.995 127.085C140.815 126.611 141.508 125.412 141.508 124.466L141.507 28.6485C141.507 28.2583 141.387 27.9652 141.178 27.8442C140.97 27.7237 140.656 27.7656 140.317 27.9614L134.142 31.5259L133.82 30.9682L139.995 27.4037C140.545 27.0862 141.079 27.0437 141.5 27.2865C141.92 27.5286 142.151 28.0122 142.151 28.6485L142.152 124.466C142.152 125.653 141.346 127.048 140.317 127.642L134.158 131.198Z" fill="#2BB4DC"/>
<path d="M134.158 131.198L133.836 130.641L139.995 127.085C140.815 126.611 141.508 125.412 141.508 124.466L141.507 28.6485C141.507 28.2583 141.387 27.9652 141.178 27.8442C140.97 27.7237 140.656 27.7656 140.317 27.9614L134.142 31.5259L133.82 30.9682L139.995 27.4037C140.545 27.0862 141.079 27.0437 141.5 27.2865C141.92 27.5286 142.151 28.0122 142.151 28.6485L142.152 124.466C142.152 125.653 141.346 127.048 140.317 127.642L134.158 131.198Z" stroke="#2BB4DC" stroke-width="1.33333" stroke-miterlimit="10"/>
<path d="M114.362 50.915C120.141 47.5785 124.825 50.2833 124.825 56.9564C124.825 63.6295 120.141 71.7433 114.362 75.0798C108.582 78.417 103.898 75.7116 103.898 69.0391C103.898 62.366 108.582 54.2516 114.362 50.915Z" fill="#2BB4DC"/>
<path d="M114.362 56.1667C116.236 55.0841 117.756 55.9619 117.756 58.1264C117.756 60.2915 116.236 62.9242 114.362 64.0061C112.487 65.0887 110.967 64.2115 110.967 62.0464C110.967 59.8813 112.487 57.2492 114.362 56.1667Z" fill="#2BB4DC"/>
<path d="M120.978 67.7102C120.978 64.1534 118.481 62.7115 115.401 64.4902L113.476 65.6018C110.395 67.3799 107.898 71.705 107.898 75.2618V76.2188C109.679 76.81 111.92 76.4899 114.362 75.0802C116.872 73.6305 119.175 71.278 120.978 68.5352V67.7102Z" fill="#2BB4DC"/>
<mask id="mask2_14_62" style="mask-type:luminance" maskUnits="userSpaceOnUse" x="110" y="55" width="8" height="10">
<path d="M110.967 55.7029H117.756V64.4697H110.967V55.7029Z" fill="white"/>
</mask>
<g mask="url(#mask2_14_62)">
<g opacity="0.699997">
<path d="M114.362 56.1668C116.236 55.0842 117.756 55.962 117.756 58.1265C117.756 60.2916 116.236 62.9243 114.362 64.0062C112.487 65.0887 110.967 64.2116 110.967 62.0465C110.967 59.8814 112.487 57.2493 114.362 56.1668Z" fill="white"/>
</g>
</g>
<mask id="mask3_14_62" style="mask-type:luminance" maskUnits="userSpaceOnUse" x="107" y="63" width="14" height="14">
<path d="M107.898 63.7285H120.978V76.5009H107.898V63.7285Z" fill="white"/>
</mask>
<g mask="url(#mask3_14_62)">
<g opacity="0.699997">
<path d="M120.978 67.7101C120.978 64.1533 118.481 62.7113 115.401 64.4901L113.476 65.6016C110.395 67.3797 107.898 71.7048 107.898 75.2616V76.2186C109.679 76.8098 111.92 76.4897 114.362 75.08C116.872 73.6304 119.175 71.2778 120.978 68.535V67.7101Z" fill="white"/>
</g>
</g>
<path d="M94.1154 89.7962L107.58 82.0225C108.196 81.6664 108.696 81.9549 108.696 82.6665V83.1109C108.696 83.8225 108.196 84.6874 107.58 85.0429L94.1154 92.8166C93.4997 93.1727 93 92.8842 93 92.1726V91.7282C93 91.0172 93.4997 90.1517 94.1154 89.7962Z" fill="#2BB4DC"/>
<mask id="mask4_14_62" style="mask-type:luminance" maskUnits="userSpaceOnUse" x="92" y="81" width="17" height="12">
<path d="M92.9995 81.87H108.696V92.9693H92.9995V81.87Z" fill="white"/>
</mask>
<g mask="url(#mask4_14_62)">
<g opacity="0.100006">
<path d="M94.1154 89.7962L107.58 82.0225C108.196 81.6663 108.696 81.9548 108.696 82.6665V83.1108C108.696 83.8224 108.196 84.6873 107.58 85.0428L94.1154 92.8165C93.4997 93.1727 93 92.8842 93 92.1725V91.7282C93 91.0172 93.4997 90.1517 94.1154 89.7962Z" fill="black"/>
</g>
</g>
<path d="M93.5577 99.1802L134.297 75.6593C134.606 75.4816 134.855 75.6252 134.855 75.9813V80.7347C134.855 81.0902 134.606 81.523 134.297 81.7007L93.5577 105.222C93.2499 105.399 93 105.256 93 104.9V100.146C93 99.7907 93.2499 99.3579 93.5577 99.1802Z" fill="#2BB4DC"/>
<mask id="mask5_14_62" style="mask-type:luminance" maskUnits="userSpaceOnUse" x="93" y="75" width="42" height="31">
<path d="M93 75.5832H134.855V105.298H93V75.5832Z" fill="white"/>
</mask>
<g mask="url(#mask5_14_62)">
<g opacity="0.199997">
<path d="M93.5572 99.1798L134.297 75.659C134.605 75.4813 134.854 75.6249 134.854 75.981V80.7344C134.854 81.0899 134.605 81.5226 134.297 81.7004L93.5572 105.221C93.2494 105.399 92.9995 105.255 92.9995 104.899V100.146C92.9995 99.7903 93.2494 99.3576 93.5572 99.1798Z" fill="white"/>
</g>
</g>
<path d="M94.1154 110.941L107.58 103.167C108.196 102.811 108.696 103.099 108.696 103.811V104.255C108.696 104.967 108.196 105.832 107.58 106.187L94.1154 113.961C93.4997 114.317 93 114.029 93 113.317V112.873C93 112.162 93.4997 111.297 94.1154 110.941Z" fill="#2BB4DC"/>
<mask id="mask6_14_62" style="mask-type:luminance" maskUnits="userSpaceOnUse" x="92" y="103" width="17" height="12">
<path d="M92.9995 103.014H108.696V114.114H92.9995V103.014Z" fill="white"/>
</mask>
<g mask="url(#mask6_14_62)">
<g opacity="0.100006">
<path d="M94.1154 110.941L107.58 103.167C108.196 102.811 108.696 103.099 108.696 103.811V104.255C108.696 104.967 108.196 105.832 107.58 106.187L94.1154 113.961C93.4997 114.317 93 114.029 93 113.317V112.873C93 112.162 93.4997 111.297 94.1154 110.941Z" fill="black"/>
</g>
</g>
<path d="M93.5577 120.325L134.297 96.8038C134.606 96.6261 134.855 96.7697 134.855 97.1258V101.879C134.855 102.235 134.606 102.667 134.297 102.845L93.5577 126.366C93.2499 126.544 93 126.4 93 126.044V121.291C93 120.935 93.2499 120.502 93.5577 120.325Z" fill="#2BB4DC"/>
<mask id="mask7_14_62" style="mask-type:luminance" maskUnits="userSpaceOnUse" x="93" y="96" width="42" height="31">
<path d="M93 96.7277H134.855V126.442H93V96.7277Z" fill="white"/>
</mask>
<g mask="url(#mask7_14_62)">
<g opacity="0.199997">
<path d="M93.5577 120.325L134.297 96.8039C134.606 96.6262 134.855 96.7698 134.855 97.1259V101.879C134.855 102.235 134.606 102.668 134.297 102.845L93.5577 126.366C93.2499 126.544 93 126.4 93 126.044V121.291C93 120.935 93.2499 120.502 93.5577 120.325Z" fill="white"/>
</g>
</g>
<path d="M109.812 123.023L125.892 113.739C126.509 113.383 127.008 113.672 127.008 114.383V119.359C127.008 120.07 126.509 120.935 125.892 121.291L109.812 130.575C109.195 130.93 108.696 130.642 108.696 129.931V124.955C108.696 124.244 109.195 123.379 109.812 123.023Z" fill="#2BB4DC"/>
<mask id="mask8_14_62" style="mask-type:luminance" maskUnits="userSpaceOnUse" x="108" y="113" width="20" height="18">
<path d="M108.696 113.587H127.008V130.727H108.696V113.587Z" fill="white"/>
</mask>
<g mask="url(#mask8_14_62)">
<g opacity="0.100006">
<path d="M109.812 123.023L125.892 113.739C126.509 113.383 127.008 113.672 127.008 114.383V119.359C127.008 120.07 126.509 120.936 125.892 121.291L109.812 130.576C109.195 130.93 108.696 130.643 108.696 129.932V124.955C108.696 124.244 109.195 123.38 109.812 123.023Z" fill="black"/>
</g>
</g>
<path d="M147.935 102.042C147.935 102.042 140.023 91.1284 139.541 89.8301C139.176 88.8512 139.566 87.3945 139.656 86.7183C139.746 86.0414 139.877 84.5351 139.99 84.1159C140.187 83.3843 139.238 83.5337 138.706 84.199C138.161 84.881 137.987 86.2108 137.716 86.4298C137.445 86.6481 135.331 83.5775 134.228 82.1562C133.125 80.7342 132.436 79.8784 131.765 80.4052C131.282 80.7845 131.642 81.6127 132.441 82.8227C133.241 84.0328 133.595 84.5937 133.715 84.8539C133.836 85.1134 133.178 85.1347 132.823 85.6808C132.546 86.1071 132.805 86.7969 132.438 87.1259C132.07 87.455 131.728 88.0469 132.131 88.714C132.644 89.5635 133.672 90.7774 134.854 91.5972C136.038 92.417 136.517 92.7049 137.215 93.8203C137.912 94.9351 144.216 106.316 144.639 106.998C145.062 107.682 145.884 109.073 147.127 109.113C148.371 109.153 158.544 100.393 159.068 99.9557C160.745 98.5576 161.274 98.3528 161.563 99.6125C161.654 100.006 161.713 100.455 161.776 100.964C161.978 102.558 163.064 108.265 163.064 108.265C163.064 108.265 168.209 110.758 172.446 109.529C176.683 108.301 178.104 106.53 178.104 106.53L175.984 103.077C176.561 101.65 179.226 95.8837 180.063 91.8432L166.796 89.7013C166.524 89.642 166.089 89.5326 165.534 89.3864C164.806 89.1945 162.975 88.5518 161.562 89.7792C156.997 93.7501 147.935 102.042 147.935 102.042Z" fill="#FFAAA8"/>
<path d="M174.236 168.978L171.858 172.283C171.858 172.283 172.96 172.929 175.312 173.018C177.441 173.099 178.025 172.4 178.104 172.233C178.463 171.462 177.902 170.072 177.749 168.877L174.236 168.978Z" fill="#2B454E"/>
<path d="M171.992 170.696C171.992 170.696 169.11 170.513 167.117 170.262C165.124 170.01 163.548 170.983 164.016 171.804C164.485 172.624 165.581 173.306 167.289 173.88C168.752 174.373 170.505 174.731 172.033 175.188C173.598 175.656 174.601 176.193 175.488 175.888C176.476 175.547 176.901 175.152 176.816 174.432C176.733 173.712 176.016 171.394 176.016 171.394L171.992 170.696Z" fill="#2B454E"/>
<path d="M178.104 165.657C178.104 165.657 177.743 168.659 177.716 169.304C177.688 169.948 174.787 170.154 174.236 168.978L174.146 165.308L178.104 165.657Z" fill="#FF9090"/>
<path d="M175.178 167.505L176.216 172.058C176.216 172.058 176.314 172.614 173.941 172.967C171.569 173.321 167.85 171.727 167.217 171.403C166.583 171.078 166.508 170.433 168.837 170.562C171.166 170.692 171.992 170.696 171.992 170.696L171.236 168.677L175.178 167.505Z" fill="#FFAAA8"/>
<path d="M180.062 91.843L181.702 91.3903C181.702 91.3903 185.138 102.253 185.518 103.298C185.898 104.345 186.326 105.46 185.587 106.755C184.706 108.295 180.062 114.498 180.062 114.498L177.115 111.613L180.458 105.486L177.501 99.4931L180.062 91.843Z" fill="#FF9090"/>
<path d="M163.178 77.7238C163.178 77.7238 161.863 75.6192 163.248 73.0419C164.88 70.0061 168.529 68.5242 172.872 69.0922C174.878 69.355 177.246 71.0017 178.544 73.5165C179.971 76.278 180.104 81.8441 180.459 83.9493L163.178 77.7238Z" fill="#2B454E"/>
<path d="M163.08 78.9124C163.08 78.9124 162.048 80.8766 162.227 81.0556C162.405 81.234 163.093 81.3789 163.093 81.3789L163.08 78.9124Z" fill="#FFAAA8"/>
<path d="M166.21 72.7022C165.088 73.4338 163.157 74.7708 163.072 79.1847C162.985 83.7166 163.625 85.1772 164.295 85.702C164.748 86.0562 167.392 85.8772 168.528 85.6099C169.663 85.3433 172.93 83.7301 174.105 81.2765C175.487 78.3907 175.207 74.1648 173.15 72.9379C170.255 71.2114 167.16 72.0834 166.21 72.7022Z" fill="#FFAAA8"/>
<path d="M178.104 106.53C180.09 109.621 181.978 112.343 182.38 115.816C183.23 123.151 180.44 131.538 179.848 136.961C179.848 136.961 181.722 139.398 181.72 142.26C181.719 144.501 178.104 165.657 178.104 165.657C178.104 165.657 175.475 166.459 174.146 165.308L171.662 126.388L172.97 121.65L178.104 106.53Z" fill="#2BB4DC"/>
<mask id="mask9_14_62" style="mask-type:luminance" maskUnits="userSpaceOnUse" x="171" y="106" width="12" height="60">
<path d="M171.661 106.531H182.54V165.929H171.661V106.531Z" fill="white"/>
</mask>
<g mask="url(#mask9_14_62)">
<g opacity="0.199997">
<path d="M178.104 106.53C180.09 109.621 181.978 112.343 182.38 115.816C183.23 123.151 180.44 131.538 179.848 136.961C179.848 136.961 181.722 139.398 181.72 142.26C181.719 144.501 178.104 165.657 178.104 165.657C178.104 165.657 175.475 166.459 174.146 165.308L171.662 126.388L172.97 121.65L178.104 106.53Z" fill="black"/>
</g>
</g>
<path d="M171.662 126.389L172.97 121.651C172.97 121.651 176.599 120.773 180.063 118.837C180.063 118.837 178.72 121.276 174.875 122.613L172.872 128.704L172.699 142.642L171.662 126.389Z" fill="#2BB4DC"/>
<mask id="mask10_14_62" style="mask-type:luminance" maskUnits="userSpaceOnUse" x="171" y="118" width="10" height="25">
<path d="M171.661 118.837H180.062V142.642H171.661V118.837Z" fill="white"/>
</mask>
<g mask="url(#mask10_14_62)">
<g opacity="0.300003">
<path d="M171.662 126.388L172.97 121.65C172.97 121.65 176.599 120.773 180.063 118.837C180.063 118.837 178.72 121.276 174.875 122.612L172.872 128.703L172.699 142.641L171.662 126.388Z" fill="black"/>
</g>
</g>
<path d="M178.103 106.53C179.166 108.265 181.706 111.23 181.166 114.08C180.511 117.533 178.653 119.96 172.97 121.65L167.639 140.955C167.639 140.955 170.415 143.552 171.264 146.023C172.111 148.493 175.178 167.504 175.178 167.504C175.178 167.504 174.23 169.052 171.236 168.677C171.236 168.677 160.796 144.834 160.058 143.298C159.322 141.763 158.844 140.615 159.175 138.115C159.507 135.615 163.063 108.265 163.063 108.265L178.103 106.53Z" fill="#2BB4DC"/>
<mask id="mask11_14_62" style="mask-type:luminance" maskUnits="userSpaceOnUse" x="159" y="106" width="23" height="63">
<path d="M159.068 106.531H181.241V168.736H159.068V106.531Z" fill="white"/>
</mask>
<g mask="url(#mask11_14_62)">
<g opacity="0.199997">
<path d="M178.103 106.53C179.166 108.265 181.706 111.23 181.166 114.08C180.511 117.533 178.653 119.96 172.97 121.65L167.639 140.955C167.639 140.955 170.415 143.552 171.264 146.023C172.111 148.493 175.178 167.504 175.178 167.504C175.178 167.504 174.23 169.052 171.236 168.677C171.236 168.677 160.796 144.833 160.058 143.298C159.322 141.763 158.844 140.615 159.175 138.115C159.507 135.615 163.063 108.265 163.063 108.265L178.103 106.53Z" fill="black"/>
</g>
</g>
<path d="M180.063 91.843L166.796 89.701C166.525 89.6418 166.087 89.5317 165.533 89.3861L165.531 89.3855C165.531 89.3855 164.966 97.7034 161.563 99.6122C161.644 100.009 161.713 100.455 161.776 100.963C161.978 102.558 163.064 108.265 163.064 108.265C163.064 108.265 168.21 110.759 172.446 109.529C176.683 108.3 178.104 106.531 178.104 106.531L175.984 103.076C176.561 101.65 179.226 95.8841 180.063 91.843Z" fill="#2BB4DC"/>
<mask id="mask12_14_62" style="mask-type:luminance" maskUnits="userSpaceOnUse" x="161" y="89" width="20" height="21">
<path d="M161.562 89.3854H180.062V109.87H161.562V89.3854Z" fill="white"/>
</mask>
<g mask="url(#mask12_14_62)">
<g opacity="0.699997">
<path d="M180.062 91.843L166.796 89.7011C166.525 89.6418 166.086 89.5317 165.532 89.3861L165.531 89.3855C165.531 89.3855 164.966 97.7034 161.563 99.6122C161.643 100.009 161.713 100.455 161.776 100.963C161.977 102.558 163.063 108.265 163.063 108.265C163.063 108.265 168.209 110.759 172.446 109.529C176.682 108.3 178.103 106.531 178.103 106.531L175.984 103.076C176.561 101.65 179.226 95.8841 180.062 91.843Z" fill="white"/>
</g>
</g>
<path d="M176.563 101.718C176.508 101.843 172.298 104.099 171.047 104.444C173.019 104.347 174.658 103.883 175.984 103.076L176.563 101.718Z" fill="#2BB4DC"/>
<path d="M165.879 72.9245C165.879 72.9245 165.261 77.1125 166.758 79.5687C166.758 79.5687 167.321 77.902 168.737 78.2201C170.163 78.5408 170.223 80.3923 169.233 81.4421C168.242 82.4918 167.14 82.1125 167.14 82.1125C167.14 82.1125 166.918 85.1393 166.798 87.6773C166.683 90.1225 166 95.7453 168.857 98.0064C171.713 100.267 178.87 101.031 182.225 96.341C184.091 93.7322 181.612 89.1198 180.459 83.9492C179.398 79.1945 178.801 72.1479 173.756 71.0176C168.712 69.8874 165.879 72.9245 165.879 72.9245Z" fill="#2B454E"/>
</g>
<defs>
<clipPath id="clip0_14_62">
<rect width="186" height="187" fill="white"/>
</clipPath>
</defs>
</svg>
